<?xml version="1.0" encoding="UTF-8" standalone="no"?>
<svg
   xmlns:dc="http://purl.org/dc/elements/1.1/"
   xmlns:cc="http://creativecommons.org/ns#"
   xmlns:rdf="http://www.w3.org/1999/02/22-rdf-syntax-ns#"
   xmlns:svg="http://www.w3.org/2000/svg"
   xmlns="http://www.w3.org/2000/svg"
   viewBox="0 0 382.8681 230.76987"
   height="230.76987"
   width="382.8681"
   xml:space="preserve"
   id="svg2"
   version="1.1"><metadata
     id="metadata8"><rdf:RDF><cc:Work
         rdf:about=""><dc:format>image/svg+xml</dc:format><dc:type
           rdf:resource="http://purl.org/dc/dcmitype/StillImage" /></cc:Work></rdf:RDF></metadata><defs
     id="defs6"><clipPath
       id="clipPath14"
       clipPathUnits="userSpaceOnUse"><path
         id="path12"
         d="M 0,0 H 595 V 842 H 0 Z" /></clipPath><clipPath
       id="clipPath24"
       clipPathUnits="userSpaceOnUse"><path
         id="path22"
         d="M 0,0 H 595 V 842 H 0 Z" /></clipPath><clipPath
       id="clipPath36"
       clipPathUnits="userSpaceOnUse"><path
         id="path34"
         d="M 72,595 H 357.0842 V 770 H 72 Z" /></clipPath><clipPath
       id="clipPath88"
       clipPathUnits="userSpaceOnUse"><path
         id="path86"
         d="m 72,620 -1e-5,142 H 87 l 1e-5,-142 z" /></clipPath><clipPath
       id="clipPath94"
       clipPathUnits="userSpaceOnUse"><path
         id="path92"
         d="M 72,595 H 357.0842 V 770 H 72 Z" /></clipPath><clipPath
       id="clipPath108"
       clipPathUnits="userSpaceOnUse"><path
         id="path106"
         d="m 86,615 h 24.41016 v 10 H 86 Z" /></clipPath><clipPath
       id="clipPath122"
       clipPathUnits="userSpaceOnUse"><path
         id="path120"
         d="m 86,650.5 h 24.41016 v 10 H 86 Z" /></clipPath><clipPath
       id="clipPath136"
       clipPathUnits="userSpaceOnUse"><path
         id="path134"
         d="m 86,686 h 24.41016 v 10 H 86 Z" /></clipPath><clipPath
       id="clipPath150"
       clipPathUnits="userSpaceOnUse"><path
         id="path148"
         d="m 86,721.5 h 24.41016 v 10 H 86 Z" /></clipPath><clipPath
       id="clipPath164"
       clipPathUnits="userSpaceOnUse"><path
         id="path162"
         d="m 86,757 h 24.41016 v 10 H 86 Z" /></clipPath><clipPath
       id="clipPath178"
       clipPathUnits="userSpaceOnUse"><path
         id="path176"
         d="M 72,595 H 357.0842 V 770 H 72 Z" /></clipPath><clipPath
       id="clipPath190"
       clipPathUnits="userSpaceOnUse"><path
         id="path188"
         d="m 118.4102,595 h 230 v 15 h -230 z" /></clipPath><clipPath
       id="clipPath204"
       clipPathUnits="userSpaceOnUse"><path
         id="path202"
         d="m 149.016,609 h 15.45508 v 10 H 149.016 Z" /></clipPath><clipPath
       id="clipPath218"
       clipPathUnits="userSpaceOnUse"><path
         id="path216"
         d="m 187.3493,609 h 15.45508 v 10 H 187.3493 Z" /></clipPath><clipPath
       id="clipPath232"
       clipPathUnits="userSpaceOnUse"><path
         id="path230"
         d="m 225.6826,609 h 15.45508 v 10 H 225.6826 Z" /></clipPath><clipPath
       id="clipPath246"
       clipPathUnits="userSpaceOnUse"><path
         id="path244"
         d="m 264.016,609 h 15.45508 v 10 H 264.016 Z" /></clipPath><clipPath
       id="clipPath260"
       clipPathUnits="userSpaceOnUse"><path
         id="path258"
         d="m 300.4028,609 h 19.34814 v 10 H 300.4028 Z" /></clipPath><clipPath
       id="clipPath274"
       clipPathUnits="userSpaceOnUse"><path
         id="path272"
         d="m 338.7361,609 h 18.34814 v 10 H 338.7361 Z" /></clipPath><clipPath
       id="clipPath288"
       clipPathUnits="userSpaceOnUse"><path
         id="path286"
         d="M 72,595 H 357.0842 V 770 H 72 Z" /></clipPath><clipPath
       id="clipPath294"
       clipPathUnits="userSpaceOnUse"><path
         id="path292"
         d="m 286,624 h 14 v 14 h -14 z" /></clipPath><clipPath
       id="clipPath298"
       clipPathUnits="userSpaceOnUse"><path
         id="path296"
         d="m 289.1727,627.2579 7.7782,7.7782 m 0,-7.7782 -7.7782,7.7782 z" /></clipPath><clipPath
       id="clipPath302"
       clipPathUnits="userSpaceOnUse"><path
         id="path300"
         d="m 286,624 h 14 v 14 h -14 z" /></clipPath><clipPath
       id="clipPath306"
       clipPathUnits="userSpaceOnUse"><path
         id="path304"
         d="m 286,624 h 14 v 14 h -14 z" /></clipPath><clipPath
       id="clipPath336"
       clipPathUnits="userSpaceOnUse"><path
         id="path334"
         d="M 72,595 H 357.0842 V 770 H 72 Z" /></clipPath><clipPath
       id="clipPath342"
       clipPathUnits="userSpaceOnUse"><path
         id="path340"
         d="m 153,644 h 15 v 15 h -15 z" /></clipPath><clipPath
       id="clipPath346"
       clipPathUnits="userSpaceOnUse"><path
         id="path344"
         d="m 156.5432,647.4219 7.7782,7.7782 m 0,-7.7782 -7.7782,7.7782 z" /></clipPath><clipPath
       id="clipPath350"
       clipPathUnits="userSpaceOnUse"><path
         id="path348"
         d="m 153,644 h 15 v 15 h -15 z" /></clipPath><clipPath
       id="clipPath354"
       clipPathUnits="userSpaceOnUse"><path
         id="path352"
         d="m 153,644 h 15 v 15 h -15 z" /></clipPath><clipPath
       id="clipPath384"
       clipPathUnits="userSpaceOnUse"><path
         id="path382"
         d="M 72,595 H 357.0842 V 770 H 72 Z" /></clipPath><clipPath
       id="clipPath390"
       clipPathUnits="userSpaceOnUse"><path
         id="path388"
         d="m 121,691 h 14 v 14 h -14 z" /></clipPath><clipPath
       id="clipPath394"
       clipPathUnits="userSpaceOnUse"><path
         id="path392"
         d="m 124.1194,693.9506 7.7782,7.7782 m 0,-7.7782 -7.7782,7.7782 z" /></clipPath><clipPath
       id="clipPath398"
       clipPathUnits="userSpaceOnUse"><path
         id="path396"
         d="m 121,691 h 14 v 14 h -14 z" /></clipPath><clipPath
       id="clipPath402"
       clipPathUnits="userSpaceOnUse"><path
         id="path400"
         d="m 121,691 h 14 v 14 h -14 z" /></clipPath><clipPath
       id="clipPath432"
       clipPathUnits="userSpaceOnUse"><path
         id="path430"
         d="M 72,595 H 357.0842 V 770 H 72 Z" /></clipPath><clipPath
       id="clipPath438"
       clipPathUnits="userSpaceOnUse"><path
         id="path436"
         d="m 166,634 h 156 v 42 H 166 Z" /></clipPath><clipPath
       id="clipPath442"
       clipPathUnits="userSpaceOnUse"><path
         id="path440"
         d="m 166.8664,634.8223 h 154.42 v 40.29033 h -154.42 z" /></clipPath><clipPath
       id="clipPath464"
       clipPathUnits="userSpaceOnUse"><path
         id="path462"
         d="M 72,595 H 357.0842 V 770 H 72 Z" /></clipPath><clipPath
       id="clipPath470"
       clipPathUnits="userSpaceOnUse"><path
         id="path468"
         d="M 117,640 H 296 V 764 H 117 Z" /></clipPath><clipPath
       id="clipPath474"
       clipPathUnits="userSpaceOnUse"><path
         id="path472"
         d="M 117.6264,640.3371 H 295.7977 V 763.2 H 117.6264 Z" /></clipPath><clipPath
       id="clipPath496"
       clipPathUnits="userSpaceOnUse"><path
         id="path494"
         d="M 72,595 H 357.0842 V 770 H 72 Z" /></clipPath><clipPath
       id="clipPath502"
       clipPathUnits="userSpaceOnUse"><path
         id="path500"
         d="M 118,633 H 270 V 764 H 118 Z" /></clipPath><clipPath
       id="clipPath506"
       clipPathUnits="userSpaceOnUse"><path
         id="path504"
         d="M 118.0433,633.0473 H 269.0916 V 763.2 H 118.0433 Z" /></clipPath><clipPath
       id="clipPath534"
       clipPathUnits="userSpaceOnUse"><path
         id="path532"
         d="M 72,595 H 357.0842 V 770 H 72 Z" /></clipPath><clipPath
       id="clipPath540"
       clipPathUnits="userSpaceOnUse"><path
         id="path538"
         d="m 263,747 h 7 v 6 h -7 z" /></clipPath><clipPath
       id="clipPath544"
       clipPathUnits="userSpaceOnUse"><path
         id="path542"
         d="m 263,747 h 7 v 6 h -7 z" /></clipPath><clipPath
       id="clipPath572"
       clipPathUnits="userSpaceOnUse"><path
         id="path570"
         d="M 72,595 H 357.0842 V 770 H 72 Z" /></clipPath><clipPath
       id="clipPath578"
       clipPathUnits="userSpaceOnUse"><path
         id="path576"
         d="m 263,736 h 7 v 6 h -7 z" /></clipPath><clipPath
       id="clipPath582"
       clipPathUnits="userSpaceOnUse"><path
         id="path580"
         d="m 263,736 h 7 v 6 h -7 z" /></clipPath><clipPath
       id="clipPath610"
       clipPathUnits="userSpaceOnUse"><path
         id="path608"
         d="M 72,595 H 357.0842 V 770 H 72 Z" /></clipPath><clipPath
       id="clipPath616"
       clipPathUnits="userSpaceOnUse"><path
         id="path614"
         d="m 263,725 h 7 v 6 h -7 z" /></clipPath><clipPath
       id="clipPath620"
       clipPathUnits="userSpaceOnUse"><path
         id="path618"
         d="m 263,725 h 7 v 6 h -7 z" /></clipPath><clipPath
       id="clipPath684"
       clipPathUnits="userSpaceOnUse"><path
         id="path682"
         d="m 290.169,18 h 16.98996 V 39.49498 H 290.169 Z" /></clipPath></defs><g
     clip-path="url(#clipPath14)"
     transform="matrix(1.3333333,0,0,-1.3333333,-95.446827,1021.866)"
     id="g10"><g
       id="g16" /><g
       id="g18"><g
         clip-path="url(#clipPath24)"
         id="g20"><path
           id="path26"
           style="fill:#ffffff;fill-opacity:1;fill-rule:nonzero;stroke:none"
           d="M 0,0 H 595 V 842 H 0 Z" /><path
           id="path28"
           style="fill:#ffffff;fill-opacity:1;fill-rule:nonzero;stroke:none"
           d="M 0,0 H 595 V 842 H 0 Z" /></g></g><g
       id="g30"><g
         clip-path="url(#clipPath36)"
         id="g32"><g
           transform="matrix(1,0,0,-1,72,770)"
           id="g38"><path
             id="path40"
             style="fill:none;stroke:#929292;stroke-width:0.5;stroke-linecap:butt;stroke-linejoin:miter;stroke-miterlimit:4;stroke-dasharray:none;stroke-opacity:1"
             d="M 84.5,8 V 150" /></g><g
           transform="matrix(1,0,0,-1,72,770)"
           id="g42"><path
             id="path44"
             style="fill:none;stroke:#929292;stroke-width:0.5;stroke-linecap:butt;stroke-linejoin:miter;stroke-miterlimit:4;stroke-dasharray:none;stroke-opacity:1"
             d="M 123.5,8 V 150" /></g><g
           transform="matrix(1,0,0,-1,72,770)"
           id="g46"><path
             id="path48"
             style="fill:none;stroke:#929292;stroke-width:0.5;stroke-linecap:butt;stroke-linejoin:miter;stroke-miterlimit:4;stroke-dasharray:none;stroke-opacity:1"
             d="M 161.5,8 V 150" /></g><g
           transform="matrix(1,0,0,-1,72,770)"
           id="g50"><path
             id="path52"
             style="fill:none;stroke:#929292;stroke-width:0.5;stroke-linecap:butt;stroke-linejoin:miter;stroke-miterlimit:4;stroke-dasharray:none;stroke-opacity:1"
             d="M 199.5,8 V 150" /></g><g
           transform="matrix(1,0,0,-1,72,770)"
           id="g54"><path
             id="path56"
             style="fill:none;stroke:#929292;stroke-width:0.5;stroke-linecap:butt;stroke-linejoin:miter;stroke-miterlimit:4;stroke-dasharray:none;stroke-opacity:1"
             d="M 238.5,8 V 150" /></g><g
           transform="matrix(1,0,0,-1,72,770)"
           id="g58"><path
             id="path60"
             style="fill:none;stroke:#929292;stroke-width:0.5;stroke-linecap:butt;stroke-linejoin:miter;stroke-miterlimit:4;stroke-dasharray:none;stroke-opacity:1"
             d="M 46,114.5 H 276" /></g><g
           transform="matrix(1,0,0,-1,72,770)"
           id="g62"><path
             id="path64"
             style="fill:none;stroke:#929292;stroke-width:0.5;stroke-linecap:butt;stroke-linejoin:miter;stroke-miterlimit:4;stroke-dasharray:none;stroke-opacity:1"
             d="M 46,78.5 H 276" /></g><g
           transform="matrix(1,0,0,-1,72,770)"
           id="g66"><path
             id="path68"
             style="fill:none;stroke:#929292;stroke-width:0.5;stroke-linecap:butt;stroke-linejoin:miter;stroke-miterlimit:4;stroke-dasharray:none;stroke-opacity:1"
             d="M 46,43.5 H 276" /></g><g
           transform="matrix(1,0,0,-1,72,770)"
           id="g70"><path
             id="path72"
             style="fill:none;stroke:#000000;stroke-width:1;stroke-linecap:square;stroke-linejoin:miter;stroke-miterlimit:4;stroke-dasharray:none;stroke-opacity:1"
             d="m 46.5,7.5 h 230" /></g><g
           transform="matrix(1,0,0,-1,72,770)"
           id="g74"><path
             id="path76"
             style="fill:none;stroke:#000000;stroke-width:1;stroke-linecap:square;stroke-linejoin:miter;stroke-miterlimit:4;stroke-dasharray:none;stroke-opacity:1"
             d="M 276.5,149.5 V 7.5" /></g><g
           transform="matrix(1,0,0,-1,72,770)"
           id="g78"><path
             id="path80"
             style="fill:none;stroke:#000000;stroke-width:1;stroke-linecap:square;stroke-linejoin:miter;stroke-miterlimit:4;stroke-dasharray:none;stroke-opacity:1"
             d="M 46.5,149.5 V 7.5" /></g></g></g><g
       id="g82"><g
         clip-path="url(#clipPath88)"
         id="g84"><g
           clip-path="url(#clipPath94)"
           id="g90"><g
             transform="rotate(90,-282.07456,363.00474)"
             id="g96"><text
               id="text100"
               style="font-variant:normal;font-weight:normal;font-size:9px;font-family:Helvetica;-inkscape-font-specification:Helvetica;writing-mode:lr-tb;fill:#000000;fill-opacity:1;fill-rule:nonzero;stroke:none"
               transform="scale(1,-1)"><tspan
                 id="tspan98"
                 y="0"
                 x="0 6.4998002 12.9996 19.0026 26.499599 31.996799 37.999802 44.499599 46.999802 53.499599 55.999802 62.0028 66.8367 72.839699 79.3395 85.839302">CHAMFER DISTANCE</tspan></text>
</g></g></g></g><g
       id="g102"><g
         clip-path="url(#clipPath108)"
         id="g104"><g
           transform="translate(87.5,617.6099)"
           id="g110"><text
             id="text114"
             style="font-variant:normal;font-weight:normal;font-size:7px;font-family:Helvetica;-inkscape-font-specification:Helvetica;writing-mode:lr-tb;fill:#000000;fill-opacity:1;fill-rule:nonzero;stroke:none"
             transform="scale(1,-1)"><tspan
               id="tspan112"
               y="0"
               x="0 3.8934 5.8407998 9.7341995 13.6276 17.521">0.0000</tspan></text>
</g></g></g><g
       id="g116"><g
         clip-path="url(#clipPath122)"
         id="g118"><g
           transform="translate(87.5,653.1099)"
           id="g124"><text
             id="text128"
             style="font-variant:normal;font-weight:normal;font-size:7px;font-family:Helvetica;-inkscape-font-specification:Helvetica;writing-mode:lr-tb;fill:#000000;fill-opacity:1;fill-rule:nonzero;stroke:none"
             transform="scale(1,-1)"><tspan
               id="tspan126"
               y="0"
               x="0 3.8934 5.8407998 9.7341995 13.6276 17.521">0.0005</tspan></text>
</g></g></g><g
       id="g130"><g
         clip-path="url(#clipPath136)"
         id="g132"><g
           transform="translate(87.5,688.6099)"
           id="g138"><text
             id="text142"
             style="font-variant:normal;font-weight:normal;font-size:7px;font-family:Helvetica;-inkscape-font-specification:Helvetica;writing-mode:lr-tb;fill:#000000;fill-opacity:1;fill-rule:nonzero;stroke:none"
             transform="scale(1,-1)"><tspan
               id="tspan140"
               y="0"
               x="0 3.8934 5.8407998 9.7341995 13.6276 17.521">0.0010</tspan></text>
</g></g></g><g
       id="g144"><g
         clip-path="url(#clipPath150)"
         id="g146"><g
           transform="translate(87.5,724.1099)"
           id="g152"><text
             id="text156"
             style="font-variant:normal;font-weight:normal;font-size:7px;font-family:Helvetica;-inkscape-font-specification:Helvetica;writing-mode:lr-tb;fill:#000000;fill-opacity:1;fill-rule:nonzero;stroke:none"
             transform="scale(1,-1)"><tspan
               id="tspan154"
               y="0"
               x="0 3.8934 5.8407998 9.7341995 13.6276 17.521">0.0015</tspan></text>
</g></g></g><g
       id="g158"><g
         clip-path="url(#clipPath164)"
         id="g160"><g
           transform="translate(87.5,759.6099)"
           id="g166"><text
             id="text170"
             style="font-variant:normal;font-weight:normal;font-size:7px;font-family:Helvetica;-inkscape-font-specification:Helvetica;writing-mode:lr-tb;fill:#000000;fill-opacity:1;fill-rule:nonzero;stroke:none"
             transform="scale(1,-1)"><tspan
               id="tspan168"
               y="0"
               x="0 3.8934 5.8407998 9.7341995 13.6276 17.521">0.0020</tspan></text>
</g></g></g><g
       id="g172"><g
         clip-path="url(#clipPath178)"
         id="g174"><g
           transform="matrix(1,0,0,-1,72,770)"
           id="g180"><path
             id="path182"
             style="fill:none;stroke:#000000;stroke-width:1;stroke-linecap:square;stroke-linejoin:miter;stroke-miterlimit:4;stroke-dasharray:none;stroke-opacity:1"
             d="m 46.5,149.5 h 230" /></g></g></g><g
       id="g184"><g
         clip-path="url(#clipPath190)"
         id="g186"><g
           transform="translate(172.5635,597.0698)"
           id="g192"><text
             id="text196"
             style="font-variant:normal;font-weight:normal;font-size:9px;font-family:Helvetica;-inkscape-font-specification:Helvetica;writing-mode:lr-tb;fill:#000000;fill-opacity:1;fill-rule:nonzero;stroke:none"
             transform="scale(1,-1)"><tspan
               id="tspan194"
               y="0"
               x="0 6.4998002 12.9996 20.496599 26.499599 32.502602 39.002399 41.502602 48.5028 54 56.342701 61.839901 68.339699 74.342697 76.842903 82.845901 88.8489 95.1903 100.6875 103.1877 109.6875 115.6905">NUMBER OF THE VERTICES</tspan></text>
</g></g></g><g
       id="g198"><g
         clip-path="url(#clipPath204)"
         id="g200"><g
           transform="translate(150.516,611.6099)"
           id="g206"><text
             id="text210"
             style="font-variant:normal;font-weight:normal;font-size:7px;font-family:Helvetica;-inkscape-font-specification:Helvetica;writing-mode:lr-tb;fill:#000000;fill-opacity:1;fill-rule:nonzero;stroke:none"
             transform="scale(1,-1)"><tspan
               id="tspan208"
               y="0"
               x="0 3.8934 7.7867999">20K</tspan></text>
</g></g></g><g
       id="g212"><g
         clip-path="url(#clipPath218)"
         id="g214"><g
           transform="translate(188.8493,611.6099)"
           id="g220"><text
             id="text224"
             style="font-variant:normal;font-weight:normal;font-size:7px;font-family:Helvetica;-inkscape-font-specification:Helvetica;writing-mode:lr-tb;fill:#000000;fill-opacity:1;fill-rule:nonzero;stroke:none"
             transform="scale(1,-1)"><tspan
               id="tspan222"
               y="0"
               x="0 3.8934 7.7867999">40K</tspan></text>
</g></g></g><g
       id="g226"><g
         clip-path="url(#clipPath232)"
         id="g228"><g
           transform="translate(227.1826,611.6099)"
           id="g234"><text
             id="text238"
             style="font-variant:normal;font-weight:normal;font-size:7px;font-family:Helvetica;-inkscape-font-specification:Helvetica;writing-mode:lr-tb;fill:#000000;fill-opacity:1;fill-rule:nonzero;stroke:none"
             transform="scale(1,-1)"><tspan
               id="tspan236"
               y="0"
               x="0 3.8934 7.7867999">60K</tspan></text>
</g></g></g><g
       id="g240"><g
         clip-path="url(#clipPath246)"
         id="g242"><g
           transform="translate(265.516,611.6099)"
           id="g248"><text
             id="text252"
             style="font-variant:normal;font-weight:normal;font-size:7px;font-family:Helvetica;-inkscape-font-specification:Helvetica;writing-mode:lr-tb;fill:#000000;fill-opacity:1;fill-rule:nonzero;stroke:none"
             transform="scale(1,-1)"><tspan
               id="tspan250"
               y="0"
               x="0 3.8934 7.7867999">80K</tspan></text>
</g></g></g><g
       id="g254"><g
         clip-path="url(#clipPath260)"
         id="g256"><g
           transform="translate(301.9028,611.6099)"
           id="g262"><text
             id="text266"
             style="font-variant:normal;font-weight:normal;font-size:7px;font-family:Helvetica;-inkscape-font-specification:Helvetica;writing-mode:lr-tb;fill:#000000;fill-opacity:1;fill-rule:nonzero;stroke:none"
             transform="scale(1,-1)"><tspan
               id="tspan264"
               y="0"
               x="0 3.8934 7.7867999 11.6802">100K</tspan></text>
</g></g></g><g
       id="g268"><g
         clip-path="url(#clipPath274)"
         id="g270"><g
           transform="translate(340.2361,611.6099)"
           id="g276"><text
             id="text280"
             style="font-variant:normal;font-weight:normal;font-size:7px;font-family:Helvetica;-inkscape-font-specification:Helvetica;writing-mode:lr-tb;fill:#000000;fill-opacity:1;fill-rule:nonzero;stroke:none"
             transform="scale(1,-1)"><tspan
               id="tspan278"
               y="0"
               x="0 3.8934 7.7867999 11.6802">120K</tspan></text>
</g></g></g><g
       id="g282"><g
         clip-path="url(#clipPath288)"
         id="g284"><g
           id="g290" /><g
           id="g328"><g
             id="g326"
             clip-path="url(#clipPath294)"><g
               id="g308" /><g
               id="g316"><g
                 id="g314"
                 clip-path="url(#clipPath298)"><g
                   id="g312"
                   clip-path="url(#clipPath302)"><path
                     id="path310"
                     style="fill:#d31876;fill-opacity:1;fill-rule:nonzero;stroke:none"
                     d="m 287,625 h 12 v 13 h -12 z" /></g></g></g><g
               id="g324"><g
                 id="g322"
                 clip-path="url(#clipPath306)"><g
                   id="g320"
                   transform="matrix(1,0,0,-1,72,770)"><path
                     id="path318"
                     style="fill:none;stroke:#d31876;stroke-width:1.41421402;stroke-linecap:butt;stroke-linejoin:miter;stroke-miterlimit:4;stroke-dasharray:none;stroke-opacity:1"
                     d="m 217.1727,142.7421 7.7782,-7.7782 m 0,7.7782 -7.7782,-7.7782 z" /></g></g></g></g></g></g></g><g
       id="g330"><g
         clip-path="url(#clipPath336)"
         id="g332"><g
           id="g338" /><g
           id="g376"><g
             id="g374"
             clip-path="url(#clipPath342)"><g
               id="g356" /><g
               id="g364"><g
                 id="g362"
                 clip-path="url(#clipPath346)"><g
                   id="g360"
                   clip-path="url(#clipPath350)"><path
                     id="path358"
                     style="fill:#f27200;fill-opacity:1;fill-rule:nonzero;stroke:none"
                     d="m 154,645 h 13 v 13 h -13 z" /></g></g></g><g
               id="g372"><g
                 id="g370"
                 clip-path="url(#clipPath354)"><g
                   id="g368"
                   transform="matrix(1,0,0,-1,72,770)"><path
                     id="path366"
                     style="fill:none;stroke:#f27200;stroke-width:1.41421402;stroke-linecap:butt;stroke-linejoin:miter;stroke-miterlimit:4;stroke-dasharray:none;stroke-opacity:1"
                     d="m 84.54323,122.5781 7.77817,-7.7782 m 0,7.7782 -7.77817,-7.7782 z" /></g></g></g></g></g></g></g><g
       id="g378"><g
         clip-path="url(#clipPath384)"
         id="g380"><g
           id="g386" /><g
           id="g424"><g
             id="g422"
             clip-path="url(#clipPath390)"><g
               id="g404" /><g
               id="g412"><g
                 id="g410"
                 clip-path="url(#clipPath394)"><g
                   id="g408"
                   clip-path="url(#clipPath398)"><path
                     id="path406"
                     style="fill:#ffd932;fill-opacity:1;fill-rule:nonzero;stroke:none"
                     d="m 122,691 h 12 v 13 h -12 z" /></g></g></g><g
               id="g420"><g
                 id="g418"
                 clip-path="url(#clipPath402)"><g
                   id="g416"
                   transform="matrix(1,0,0,-1,72,770)"><path
                     id="path414"
                     style="fill:none;stroke:#ffd932;stroke-width:1.41421402;stroke-linecap:butt;stroke-linejoin:miter;stroke-miterlimit:4;stroke-dasharray:none;stroke-opacity:1"
                     d="m 52.11943,76.04942 7.77817,-7.77817 m 0,7.77817 -7.77817,-7.77817 z" /></g></g></g></g></g></g></g><g
       id="g426"><g
         clip-path="url(#clipPath432)"
         id="g428"><g
           id="g434" /><g
           id="g456"><g
             id="g454"
             clip-path="url(#clipPath438)"><g
               id="g444" /><g
               id="g452"><g
                 id="g450"
                 clip-path="url(#clipPath442)"><g
                   id="g448"
                   transform="matrix(1,0,0,-1,168.0664,673.9127)"><path
                     id="path446"
                     style="fill:none;stroke:#d31876;stroke-width:2;stroke-linecap:butt;stroke-linejoin:miter;stroke-miterlimit:4;stroke-dasharray:none;stroke-opacity:1"
                     d="m 0,0 c 15.76271,7.537833 48.61273,26.00175 63.05082,30.15133 11.15696,3.20657 30.73318,3.78199 41.46398,4.73334 11.4602,1.01601 35.6289,2.25425 47.5052,3.00566" /></g></g></g></g></g></g></g><g
       id="g458"><g
         clip-path="url(#clipPath464)"
         id="g460"><g
           id="g466" /><g
           id="g488"><g
             id="g486"
             clip-path="url(#clipPath470)"><g
               id="g476" /><g
               id="g484"><g
                 id="g482"
                 clip-path="url(#clipPath474)"><g
                   id="g480"
                   transform="matrix(1,0,0,-1,118.8264,2353.228)"><path
                     id="path478"
                     style="fill:none;stroke:#f27200;stroke-width:2;stroke-linecap:butt;stroke-linejoin:miter;stroke-miterlimit:4;stroke-dasharray:none;stroke-opacity:1"
                     d="m 0,0 c 0.2667987,279.3377 0.4182811,940.2523 1.067195,1117.351 0.30118,82.196 0.951908,192.259 1.533973,240.69 0.392041,32.62 1.306394,84.724 1.928496,109.174 0.504868,19.842 1.65476,55.61 2.38824,71.876 0.607044,13.461 1.694672,39.717 2.801946,49.179 0.70044,5.985 1.23841,13.177 3.45288,19.407 4.70935,13.249 27.92516,65.245 43.28182,77.934 14.17378,11.711 55.83945,20.66 72.15235,23.69 12.8639,2.39 35.3733,1.775 47.1644,2.367" /></g></g></g></g></g></g></g><g
       id="g490"><g
         clip-path="url(#clipPath496)"
         id="g492"><g
           id="g498" /><g
           id="g520"><g
             id="g518"
             clip-path="url(#clipPath502)"><g
               id="g508" /><g
               id="g516"><g
                 id="g514"
                 clip-path="url(#clipPath506)"><g
                   id="g512"
                   transform="matrix(1,0,0,-1,119.2433,1037.835)"><path
                     id="path510"
                     style="fill:none;stroke:#ffd932;stroke-width:2;stroke-linecap:butt;stroke-linejoin:miter;stroke-miterlimit:4;stroke-dasharray:none;stroke-opacity:1"
                     d="M 1.691949,0 C 3.933442,71.497 0,234.904 10.65792,285.988 c 6.26944,30.0498 22.15777,77.9164 36.72711,91.945 11.83899,11.3996 47.70084,18.8661 61.58587,21.939 10.8407,2.3991 29.7581,2.7867 39.6774,3.7157" /></g></g></g></g></g><path
           id="path522"
           style="fill:#ffffff;fill-opacity:1;fill-rule:nonzero;stroke:none"
           d="m 252.5,688.5 h 88 v 67 h -88 z" /><g
           transform="matrix(1,0,0,-1,72,770)"
           id="g524"><path
             id="path526"
             style="fill:none;stroke:#000000;stroke-width:1;stroke-linecap:butt;stroke-linejoin:miter;stroke-miterlimit:4;stroke-dasharray:none;stroke-opacity:1"
             d="m 180.5,14.5 h 88 v 67 h -88 z" /></g></g></g><g
       id="g528"><g
         clip-path="url(#clipPath534)"
         id="g530"><g
           id="g536" /><g
           id="g558"><g
             id="g556"
             clip-path="url(#clipPath540)"><g
               id="g546" /><g
               id="g554"><g
                 id="g552"
                 clip-path="url(#clipPath544)"><g
                   id="g550"
                   transform="matrix(1,0,0,-1,262.7547,753.4386)"><path
                     id="path548"
                     style="fill:none;stroke:#ffd932;stroke-width:1.26003206;stroke-linecap:butt;stroke-linejoin:miter;stroke-miterlimit:4;stroke-dasharray:none;stroke-opacity:1"
                     d="M 0.2452888,3.938606 H 7.245289" /></g></g></g></g></g><g
           transform="translate(275.3089,746.5433)"
           id="g560"><text
             id="text564"
             style="font-variant:normal;font-weight:normal;font-size:9px;font-family:Helvetica;-inkscape-font-specification:Helvetica;writing-mode:lr-tb;fill:#000000;fill-opacity:1;fill-rule:nonzero;stroke:none"
             transform="scale(1,-1)"><tspan
               id="tspan562"
               y="0"
               x="0 7.4970002 13.9968 16.993799 21.493799 28.990801 33.996601 35.996399">MC-small</tspan></text>
</g></g></g><g
       id="g566"><g
         clip-path="url(#clipPath572)"
         id="g568"><g
           id="g574" /><g
           id="g596"><g
             id="g594"
             clip-path="url(#clipPath578)"><g
               id="g584" /><g
               id="g592"><g
                 id="g590"
                 clip-path="url(#clipPath582)"><g
                   id="g588"
                   transform="matrix(1,0,0,-1,262.7547,742.4386)"><path
                     id="path586"
                     style="fill:none;stroke:#f27200;stroke-width:1.26003206;stroke-linecap:butt;stroke-linejoin:miter;stroke-miterlimit:4;stroke-dasharray:none;stroke-opacity:1"
                     d="M 0.2452888,3.938606 H 7.245289" /></g></g></g></g></g><g
           transform="translate(275.3089,735.5433)"
           id="g598"><text
             id="text602"
             style="font-variant:normal;font-weight:normal;font-size:9px;font-family:Helvetica;-inkscape-font-specification:Helvetica;writing-mode:lr-tb;fill:#000000;fill-opacity:1;fill-rule:nonzero;stroke:none"
             transform="scale(1,-1)"><tspan
               id="tspan600"
               y="0"
               x="0 7.4970002 13.9968 16.993799 24.490801 29.496599 34.502399 36.502201 41.507999">MC-medium</tspan></text>
</g></g></g><g
       id="g604"><g
         clip-path="url(#clipPath610)"
         id="g606"><g
           id="g612" /><g
           id="g634"><g
             id="g632"
             clip-path="url(#clipPath616)"><g
               id="g622" /><g
               id="g630"><g
                 id="g628"
                 clip-path="url(#clipPath620)"><g
                   id="g626"
                   transform="matrix(1,0,0,-1,262.7547,731.4386)"><path
                     id="path624"
                     style="fill:none;stroke:#d31876;stroke-width:1.26003206;stroke-linecap:butt;stroke-linejoin:miter;stroke-miterlimit:4;stroke-dasharray:none;stroke-opacity:1"
                     d="M 0.2452888,3.938606 H 7.245289" /></g></g></g></g></g><g
           transform="translate(275.3089,724.5433)"
           id="g636"><text
             id="text640"
             style="font-variant:normal;font-weight:normal;font-size:9px;font-family:Helvetica;-inkscape-font-specification:Helvetica;writing-mode:lr-tb;fill:#000000;fill-opacity:1;fill-rule:nonzero;stroke:none"
             transform="scale(1,-1)"><tspan
               id="tspan638"
               y="0"
               x="0 7.4970002 13.9968 16.993799 18.993601 23.999399 26.996401 32.002201">MC-large</tspan></text>
</g><path
           id="path642"
           style="fill:#ffd932;fill-opacity:1;fill-rule:nonzero;stroke:none"
           d="m 264.4,714.9 4.2,4.2 m 0,-4.2 -4.2,4.2 z" /><g
           transform="matrix(1,0,0,-1,262.7547,720.4386)"
           id="g644"><path
             id="path646"
             style="fill:none;stroke:#ffd932;stroke-width:1;stroke-linecap:butt;stroke-linejoin:miter;stroke-miterlimit:4;stroke-dasharray:none;stroke-opacity:1"
             d="m 1.645289,5.538606 4.2,-4.2 m 0,4.2 -4.2,-4.2 z" /></g><g
           transform="translate(275.3089,713.5433)"
           id="g648"><text
             id="text652"
             style="font-variant:normal;font-weight:normal;font-size:9px;font-family:Helvetica;-inkscape-font-specification:Helvetica;writing-mode:lr-tb;fill:#000000;fill-opacity:1;fill-rule:nonzero;stroke:none"
             transform="scale(1,-1)"><tspan
               id="tspan650"
               y="0"
               x="0 7.0001998 12.006 15.003 19.503 22.5 27 34.497002 39.5028 41.502602">Ours-small</tspan></text>
</g><path
           id="path654"
           style="fill:#f27200;fill-opacity:1;fill-rule:nonzero;stroke:none"
           d="m 264.4,703.9 4.2,4.2 m 0,-4.2 -4.2,4.2 z" /><g
           transform="matrix(1,0,0,-1,262.7547,709.4386)"
           id="g656"><path
             id="path658"
             style="fill:none;stroke:#f27200;stroke-width:1;stroke-linecap:butt;stroke-linejoin:miter;stroke-miterlimit:4;stroke-dasharray:none;stroke-opacity:1"
             d="m 1.645289,5.538606 4.2,-4.2 m 0,4.2 -4.2,-4.2 z" /></g><g
           transform="translate(275.3089,702.5433)"
           id="g660"><text
             id="text664"
             style="font-variant:normal;font-weight:normal;font-size:9px;font-family:Helvetica;-inkscape-font-specification:Helvetica;writing-mode:lr-tb;fill:#000000;fill-opacity:1;fill-rule:nonzero;stroke:none"
             transform="scale(1,-1)"><tspan
               id="tspan662"
               y="0"
               x="0 7.0001998 12.006 15.003 19.503 22.5 29.997 35.0028 40.008598 42.0084 47.014198">Ours-medium</tspan></text>
</g><path
           id="path666"
           style="fill:#d31876;fill-opacity:1;fill-rule:nonzero;stroke:none"
           d="m 264.4,692.9 4.2,4.2 m 0,-4.2 -4.2,4.2 z" /><g
           transform="matrix(1,0,0,-1,262.7547,698.4386)"
           id="g668"><path
             id="path670"
             style="fill:none;stroke:#d31876;stroke-width:1;stroke-linecap:butt;stroke-linejoin:miter;stroke-miterlimit:4;stroke-dasharray:none;stroke-opacity:1"
             d="m 1.645289,5.538606 4.2,-4.2 m 0,4.2 -4.2,-4.2 z" /></g><g
           transform="translate(275.3089,691.5433)"
           id="g672"><text
             id="text676"
             style="font-variant:normal;font-weight:normal;font-size:9px;font-family:Helvetica;-inkscape-font-specification:Helvetica;writing-mode:lr-tb;fill:#000000;fill-opacity:1;fill-rule:nonzero;stroke:none"
             transform="scale(1,-1)"><tspan
               id="tspan674"
               y="0"
               x="0 7.0001998 12.006 15.003 19.503 22.5 24.4998 29.5056 32.502602 37.5084">Ours-large</tspan></text>
</g></g></g><g
       id="g678"><g
         clip-path="url(#clipPath684)"
         id="g680"><g
           transform="translate(293.664,24.89197)"
           id="g686"><text
             id="text690"
             style="font-variant:normal;font-weight:normal;font-size:12px;font-family:HelveticaNeue;-inkscape-font-specification:HelveticaNeue;writing-mode:lr-tb;fill:#000000;fill-opacity:1;fill-rule:nonzero;stroke:none"
             transform="scale(1,-1)"><tspan
               id="tspan688"
               y="0"
               x="0">1</tspan></text>
</g></g></g></g></svg>